<?xml version="1.0" encoding="UTF-8"?>
<svg id="_Слой_1" data-name="Слой 1" xmlns="http://www.w3.org/2000/svg" xmlns:xlink="http://www.w3.org/1999/xlink" viewBox="0 0 326 65.75">
  <defs>
    <style>
      .cls-1 {
        filter: url(#outer-glow-2);
      }

      .cls-1, .cls-2 {
        fill: #0088f7;
      }

      .cls-2 {
        filter: url(#outer-glow-1);
      }
    </style>
    <filter id="outer-glow-1" filterUnits="userSpaceOnUse">
      <feOffset dx="0" dy="0"/>
      <feGaussianBlur result="blur" stdDeviation="1"/>
      <feFlood flood-color="#0088f7" flood-opacity=".8"/>
      <feComposite in2="blur" operator="in"/>
      <feComposite in="SourceGraphic"/>
    </filter>
    <filter id="outer-glow-2" filterUnits="userSpaceOnUse">
      <feOffset dx="0" dy="0"/>
      <feGaussianBlur result="blur-2" stdDeviation="1"/>
      <feFlood flood-color="#0088f7" flood-opacity=".8"/>
      <feComposite in2="blur-2" operator="in"/>
      <feComposite in="SourceGraphic"/>
    </filter>
  </defs>
  <rect x="185.65" y="25.73" width="22.56" height="9.19"/>
  <rect class="cls-2" x="187.32" y="27.82" width="5.01" height="5.01"/>
  <rect class="cls-1" x="201.52" y="28.03" width="5.01" height="5.01"/>
  <path d="m34.25,13.56H.32v44.65h33.92c3.07,0,5.81-1.23,8.24-3.71,2.43-2.47,3.64-5.32,3.64-8.56v-2.49c0-2.81-.98-5.41-2.94-7.79,1.96-2.38,2.94-4.96,2.94-7.73v-2.11c0-3.24-1.21-6.09-3.64-8.56-2.43-2.47-5.17-3.71-8.24-3.71Zm2.87,32.39c0,.89-.28,1.66-.83,2.3-.55.64-1.24.96-2.04.96H9.33v-9.01h24.91c.81,0,1.49.32,2.04.96.55.64.83,1.41.83,2.3v2.49Zm0-18.01c0,.89-.28,1.66-.83,2.3-.55.64-1.24.96-2.04.96H9.33v-8.62h24.91c.81,0,1.49.32,2.04.96.55.64.83,1.41.83,2.3v2.11Z"/>
  <path d="m86.88,13.56h-22.04c-3.07,0-5.81,1.24-8.24,3.71-2.43,2.47-3.64,5.32-3.64,8.56v20.12c0,3.24,1.21,6.09,3.64,8.56,2.43,2.47,5.17,3.71,8.24,3.71h22.04c3.07,0,5.81-1.23,8.24-3.71,2.43-2.47,3.64-5.32,3.64-8.56v-20.12c0-3.24-1.21-6.09-3.64-8.56-2.43-2.47-5.17-3.71-8.24-3.71Zm2.87,32.39c0,.89-.28,1.66-.83,2.3-.55.64-1.24.96-2.04.96h-22.04c-.81,0-1.49-.32-2.04-.96-.55-.64-.83-1.41-.83-2.3v-20.12c0-.89.28-1.66.83-2.3.55-.64,1.23-.96,2.04-.96h22.04c.81,0,1.49.32,2.04.96.55.64.83,1.41.83,2.3v20.12Z"/>
  <polygon points="105.22 22.57 123.3 22.57 123.3 58.21 132.3 58.21 132.3 22.57 150.38 22.57 150.38 13.56 105.22 13.56 105.22 22.57"/>
  <rect x="157.22" y="13.56" width="9.07" height="44.65"/>
  <path d="m207.77,13.56h-1.28l4.71-4.71-4.55-4.55-9.26,9.26h-2.55l-8.58-9.28-4.55,4.55,4.73,4.73h-.7c-3.07,0-5.81,1.24-8.24,3.71-2.43,2.47-3.64,5.32-3.64,8.56v20.12c0,3.24,1.21,6.09,3.64,8.56,2.43,2.47,5.17,3.71,8.24,3.71h6.84v5.56h9.01v-5.56h6.2c3.07,0,5.81-1.23,8.24-3.71,2.43-2.47,3.64-5.32,3.64-8.56v-20.12c0-3.24-1.21-6.09-3.64-8.56-2.43-2.47-5.17-3.71-8.24-3.71Zm2.87,32.39c0,.89-.28,1.66-.83,2.3-.55.64-1.24.96-2.04.96h-6.2v-5.56h-9.01v5.56h-6.84c-.81,0-1.49-.32-2.04-.96-.55-.64-.83-1.41-.83-2.3v-20.12c0-.89.28-1.66.83-2.3.55-.64,1.24-.96,2.04-.96h22.04c.81,0,1.49.32,2.04.96.55.64.83,1.41.83,2.3v20.12Z"/>
  <path d="m263.33,45.95c0,.89-.28,1.66-.83,2.3-.55.64-1.24.96-2.04.96h-22.04c-.81,0-1.49-.32-2.04-.96-.55-.64-.83-1.41-.83-2.3V13.56h-9.01v32.39c0,3.24,1.21,6.09,3.64,8.56,2.43,2.47,5.17,3.71,8.24,3.71h22.04c3.07,0,5.81-1.23,8.24-3.71,2.43-2.47,3.64-5.32,3.64-8.56V13.56h-9.01v32.39Z"/>
  <polygon points="325.68 22.57 325.68 13.56 279.87 13.56 279.87 58.21 325.68 58.21 325.68 49.21 288.88 49.21 288.88 39.82 319.42 39.82 319.42 30.81 288.88 30.81 288.88 22.57 325.68 22.57"/>
  <path d="m180.86,7.98l4.55-4.55-.99-.99c-.46-.46-1.53-.14-2.39.72l-1.44,1.44c-.86.86-1.18,1.93-.72,2.39l.99.99Z"/>
  <path d="m213.06,6.99c.46-.46.14-1.53-.72-2.39l-1.44-1.44c-.86-.86-1.93-1.18-2.39-.72l-1,1,4.55,4.55,1-1Z"/>
</svg>